# xmcd CD database file
#
# Track frame offsets:
#	150
#	12802
#	24197
#	40062
#	49502
#	60667
#	74062
#	85657
#	99942
#	112225
#	122830
#	132560
#
# Disc length: 1882 seconds
#
# Revision: 3
# Processed by: cddbd v1.5.1PL0 Copyright (c) Steve Scherf et al.
# Submitted via: CDex 1.51
#
DISCID=9c07580c
DTITLE=Various Artist - Country and Western Club - Vol.2
DYEAR=1900
DGENRE=Country
TTITLE0=Fankie Laine - High Noon
TTITLE1=Don Gibson - Oh Lonesome Me
TTITLE2=Carl Perkins - That's Right
TTITLE3=Bobby Helms - A Fool Such As I
TTITLE4=Johnny Horton - The Battle Of New Orleans
TTITLE5=Jerry Lee Lewis - The Ballad Of Billy Joe
TTITLE6=Jim Reeves - Welcome To My World
TTITLE7=Marty Robbins - Cool Water
TTITLE8=Johnny Cash - Next In Line
TTITLE9=Slim Whitman - Rose Marie
TTITLE10=Faron Young - Sweet Dreams
TTITLE11=Ferlin Husky - Wings Of A Dove
EXTD=
EXTT0=
EXTT1=
EXTT2=
EXTT3=
EXTT4=
EXTT5=
EXTT6=
EXTT7=
EXTT8=
EXTT9=
EXTT10=
EXTT11=
PLAYORDER=
